<svg width="21" height="20" viewBox="0 0 21 20" fill="none" xmlns="http://www.w3.org/2000/svg">
<path d="M10.3334 1.875C10.6786 1.875 10.9584 2.15482 10.9584 2.5V4.375C10.9584 4.72018 10.6786 5 10.3334 5C9.9882 5 9.70837 4.72018 9.70837 4.375V2.5C9.70837 2.15482 9.9882 1.875 10.3334 1.875Z" fill="#262626"/>
<path d="M6.58337 10C6.58337 7.92893 8.26231 6.25 10.3334 6.25C12.4044 6.25 14.0834 7.92893 14.0834 10C14.0834 12.0711 12.4044 13.75 10.3334 13.75C8.26231 13.75 6.58337 12.0711 6.58337 10Z" fill="#262626"/>
<path d="M16.0787 5.13862C16.3227 4.89454 16.3227 4.49881 16.0787 4.25473C15.8346 4.01065 15.4389 4.01065 15.1948 4.25473L13.869 5.58056C13.6249 5.82463 13.6249 6.22036 13.869 6.46444C14.113 6.70852 14.5088 6.70852 14.7528 6.46444L16.0787 5.13862Z" fill="#262626"/>
<path d="M18.4584 10C18.4584 10.3452 18.1786 10.625 17.8334 10.625H15.9584C15.6132 10.625 15.3334 10.3452 15.3334 10C15.3334 9.65482 15.6132 9.375 15.9584 9.375H17.8334C18.1786 9.375 18.4584 9.65482 18.4584 10Z" fill="#262626"/>
<path d="M15.1947 15.7452C15.4388 15.9893 15.8345 15.9893 16.0786 15.7452C16.3226 15.5011 16.3226 15.1054 16.0786 14.8613L14.7527 13.5355C14.5087 13.2914 14.1129 13.2914 13.8689 13.5355C13.6248 13.7796 13.6248 14.1753 13.8689 14.4194L15.1947 15.7452Z" fill="#262626"/>
<path d="M10.3334 15C10.6786 15 10.9584 15.2798 10.9584 15.625V17.5C10.9584 17.8452 10.6786 18.125 10.3334 18.125C9.9882 18.125 9.70837 17.8452 9.70837 17.5V15.625C9.70837 15.2798 9.9882 15 10.3334 15Z" fill="#262626"/>
<path d="M6.79796 14.4194C7.04204 14.1753 7.04204 13.7796 6.79796 13.5355C6.55388 13.2914 6.15815 13.2914 5.91408 13.5355L4.58825 14.8613C4.34417 15.1054 4.34417 15.5011 4.58825 15.7452C4.83233 15.9893 5.22806 15.9893 5.47213 15.7452L6.79796 14.4194Z" fill="#262626"/>
<path d="M5.33337 10C5.33337 10.3452 5.05355 10.625 4.70837 10.625H2.83337C2.4882 10.625 2.20837 10.3452 2.20837 10C2.20837 9.65482 2.4882 9.375 2.83337 9.375H4.70837C5.05355 9.375 5.33337 9.65482 5.33337 10Z" fill="#262626"/>
<path d="M5.91398 6.46443C6.15806 6.70851 6.55379 6.70851 6.79787 6.46443C7.04194 6.22036 7.04194 5.82463 6.79787 5.58055L5.47204 4.25472C5.22796 4.01065 4.83223 4.01065 4.58816 4.25472C4.34408 4.4988 4.34408 4.89453 4.58816 5.13861L5.91398 6.46443Z" fill="#262626"/>
</svg>
