<svg width="21" height="20" viewBox="0 0 21 20" fill="none" xmlns="http://www.w3.org/2000/svg">
<path fill-rule="evenodd" clip-rule="evenodd" d="M16.8741 7.04015L14.3231 9.16597C14.4478 9.71453 14.4478 10.2855 14.3231 10.834L16.8741 12.9599C17.7641 11.0931 17.7641 8.90687 16.8741 7.04015ZM13.6265 16.2075L11.5007 13.6565C10.9521 13.7812 10.3812 13.7812 9.83259 13.6565L7.70677 16.2075C9.57349 17.0975 11.7598 17.0975 13.6265 16.2075ZM4.45914 12.9599L7.01013 10.834C6.88546 10.2855 6.88546 9.71453 7.01013 9.16597L4.45914 7.04015C3.56912 8.90687 3.56912 11.0931 4.45914 12.9599ZM7.70677 3.79252L9.83259 6.3435C10.3812 6.21883 10.9521 6.21883 11.5007 6.3435L13.6265 3.79252C11.7598 2.90249 9.57349 2.90249 7.70677 3.79252ZM14.9212 3.076C15.452 3.40271 15.9529 3.79577 16.4119 4.25476C16.8709 4.71374 17.2639 5.21463 17.5906 5.7454C19.192 8.34692 19.192 11.6531 17.5906 14.2546C17.2639 14.7854 16.8709 15.2863 16.4119 15.7452C15.9529 16.2042 15.452 16.5973 14.9212 16.924C12.3197 18.5253 9.01355 18.5253 6.41203 16.924C5.88125 16.5973 5.38037 16.2042 4.92138 15.7452C4.4624 15.2863 4.06934 14.7854 3.74262 14.2546C2.14129 11.6531 2.14129 8.34692 3.74262 5.7454C4.06934 5.21463 4.4624 4.71374 4.92138 4.25476C5.38037 3.79577 5.88125 3.40271 6.41203 3.076C9.01355 1.47467 12.3197 1.47467 14.9212 3.076ZM12.4344 8.23223C12.1631 7.96094 11.8464 7.76589 11.5095 7.64559C10.9658 7.45147 10.3675 7.45147 9.82375 7.64559C9.48682 7.76589 9.17015 7.96094 8.89886 8.23223C8.62757 8.50353 8.43252 8.8202 8.31222 9.15712C8.1181 9.70083 8.1181 10.2992 8.31222 10.8429C8.43252 11.1798 8.62757 11.4965 8.89886 11.7678C9.17015 12.0391 9.48682 12.2341 9.82375 12.3544C10.3675 12.5485 10.9658 12.5485 11.5095 12.3544C11.8464 12.2341 12.1631 12.0391 12.4344 11.7678C12.7057 11.4965 12.9007 11.1798 13.021 10.8429C13.2152 10.2992 13.2152 9.70083 13.021 9.15712C12.9007 8.8202 12.7057 8.50353 12.4344 8.23223Z" fill="#262626"/>
</svg>
