<svg width="21" height="20" viewBox="0 0 21 20" fill="none" xmlns="http://www.w3.org/2000/svg">
<path fill-rule="evenodd" clip-rule="evenodd" d="M8.16663 3.75C8.44568 3.75 8.69092 3.93499 8.76758 4.2033L9.44524 6.57512C9.74186 7.61327 10.5534 8.42477 11.5915 8.72138L13.9633 9.39905C14.2316 9.47571 14.4166 9.72095 14.4166 10C14.4166 10.2791 14.2316 10.5243 13.9633 10.601L11.5915 11.2786C10.5534 11.5752 9.74186 12.3867 9.44524 13.4249L8.76758 15.7967C8.69092 16.065 8.44568 16.25 8.16663 16.25C7.88758 16.25 7.64233 16.065 7.56567 15.7967L6.88801 13.4249C6.59139 12.3867 5.7799 11.5752 4.74175 11.2786L2.36993 10.601C2.10161 10.5243 1.91663 10.2791 1.91663 10C1.91663 9.72095 2.10161 9.47571 2.36993 9.39905L4.74175 8.72138C5.7799 8.42477 6.5914 7.61327 6.88801 6.57512L7.56567 4.2033C7.64233 3.93499 7.88758 3.75 8.16663 3.75Z" fill="#262626"/>
<path fill-rule="evenodd" clip-rule="evenodd" d="M15.6666 1.25C15.9534 1.25 16.2034 1.44519 16.273 1.72342L16.4887 2.5863C16.6846 3.37005 17.2966 3.982 18.0803 4.17794L18.9432 4.39366C19.2214 4.46322 19.4166 4.71321 19.4166 5C19.4166 5.28679 19.2214 5.53678 18.9432 5.60634L18.0803 5.82206C17.2966 6.018 16.6846 6.62995 16.4887 7.4137L16.273 8.27658C16.2034 8.55481 15.9534 8.75 15.6666 8.75C15.3798 8.75 15.1298 8.55481 15.0603 8.27658L14.8446 7.4137C14.6486 6.62995 14.0367 6.018 13.2529 5.82206L12.39 5.60634C12.1118 5.53678 11.9166 5.28679 11.9166 5C11.9166 4.71321 12.1118 4.46322 12.39 4.39366L13.2529 4.17794C14.0367 3.982 14.6486 3.37005 14.8446 2.5863L15.0603 1.72342C15.1298 1.44519 15.3798 1.25 15.6666 1.25Z" fill="#262626"/>
<path fill-rule="evenodd" clip-rule="evenodd" d="M14.4166 12.5C14.6856 12.5 14.9245 12.6721 15.0096 12.9274L15.3381 13.913C15.4625 14.2862 15.7554 14.5791 16.1287 14.7035L17.1143 15.0321C17.3695 15.1171 17.5416 15.356 17.5416 15.625C17.5416 15.894 17.3695 16.1329 17.1143 16.2179L16.1287 16.5465C15.7554 16.6709 15.4625 16.9638 15.3381 17.337L15.0096 18.3226C14.9245 18.5779 14.6856 18.75 14.4166 18.75C14.1476 18.75 13.9088 18.5779 13.8237 18.3226L13.4952 17.337C13.3707 16.9638 13.0778 16.6709 12.7046 16.5465L11.719 16.2179C11.4638 16.1329 11.2916 15.894 11.2916 15.625C11.2916 15.356 11.4638 15.1171 11.719 15.0321L12.7046 14.7035C13.0778 14.5791 13.3707 14.2862 13.4952 13.913L13.8237 12.9274C13.9088 12.6721 14.1476 12.5 14.4166 12.5Z" fill="#262626"/>
</svg>
