<svg width="21" height="20" viewBox="0 0 21 20" fill="none" xmlns="http://www.w3.org/2000/svg">
<path d="M14.401 3.62122C12.675 4.31171 10.8265 4.76103 8.89668 4.92754C8.34044 4.97554 7.77734 5.00005 7.20837 5.00005H6.58337C4.16713 5.00005 2.20837 6.9588 2.20837 9.37505C2.20837 11.5414 3.78291 13.34 5.85002 13.6889C6.12857 14.8297 6.51509 15.9282 6.99808 16.9729C7.3848 17.8093 8.39322 18.0729 9.15028 17.6358L9.69721 17.3201C10.4306 16.8966 10.6686 15.9928 10.3406 15.2633C10.1449 14.828 9.97022 14.3812 9.81789 13.9242C11.4157 14.1392 12.9516 14.549 14.401 15.1289C15.0058 13.3211 15.3334 11.3863 15.3334 9.37503C15.3334 7.36377 15.0058 5.42901 14.401 3.62122Z" fill="#262626"/>
<path d="M15.5506 3.1173C16.2201 5.08038 16.5834 7.18528 16.5834 9.37503C16.5834 11.5648 16.2201 13.6697 15.5505 15.6328C15.5046 15.7676 15.4573 15.9018 15.4085 16.0352C15.2898 16.3594 15.4564 16.7183 15.7806 16.837C16.1047 16.9556 16.4637 16.789 16.5823 16.4649C16.699 16.1461 16.808 15.8237 16.9092 15.4978C17.3456 14.0922 17.6356 12.6224 17.7617 11.1065C18.1925 10.6578 18.4584 10.0473 18.4584 9.37505C18.4584 8.70284 18.1925 8.0923 17.7617 7.64359C17.6356 6.12769 17.3456 4.65793 16.9092 3.25231C16.808 2.92641 16.699 2.60397 16.5823 2.28521C16.4637 1.96106 16.1047 1.79448 15.7806 1.91313C15.4564 2.03179 15.2898 2.39074 15.4085 2.71489C15.4573 2.84832 15.5046 2.98251 15.5506 3.1173Z" fill="#262626"/>
</svg>
