<svg width="60" height="60" viewBox="0 0 60 60" fill="none" xmlns="http://www.w3.org/2000/svg">
<path d="M6.00049 53.9997C6.00049 50.848 6.62126 47.7271 7.82737 44.8153C9.03349 41.9035 10.8013 39.2578 13.0299 37.0292C15.2585 34.8006 17.9043 33.0328 20.8161 31.8266C23.7279 30.6205 26.8487 29.9998 30.0005 29.9998V53.9997L6.00049 53.9997Z" fill="#1A1A1A"/>
<path d="M30.0005 29.9998C30.0005 33.1515 30.6213 36.2723 31.8274 39.1841C33.0335 42.096 34.8014 44.7417 37.03 46.9703C39.2586 49.1989 41.9043 50.9667 44.8161 52.1728C47.7279 53.3789 50.8488 53.9997 54.0005 53.9997L54.0005 29.9998L30.0005 29.9998Z" fill="#FFD400"/>
<path d="M30.0005 29.9997C30.0005 26.848 29.3797 23.7271 28.1736 20.8153C26.9675 17.9035 25.1996 15.2578 22.971 13.0292C20.7424 10.8006 18.0967 9.03275 15.1849 7.82665C12.2731 6.62053 9.15221 5.99976 6.00049 5.99976L6.00049 29.9997H30.0005Z" fill="#FFD400"/>
<path d="M54.0004 5.99976C54.0004 9.15148 53.3796 12.2723 52.1735 15.1841C50.9674 18.096 49.1996 20.7417 46.971 22.9703C44.7424 25.1989 42.0966 26.9667 39.1848 28.1728C36.273 29.3789 33.1521 29.9997 30.0004 29.9997L30.0004 5.99976H54.0004Z" fill="#1A1A1A"/>
</svg>
