<svg width="93" height="16" viewBox="0 0 93 16" fill="none" xmlns="http://www.w3.org/2000/svg">
<path d="M7.49198 1.30996C7.88556 0.697195 8.78119 0.697195 9.17476 1.30996L10.8501 3.91833C10.9856 4.12917 11.1952 4.28148 11.4375 4.34512L14.436 5.13245C15.1404 5.31742 15.4171 6.1692 14.956 6.73287L12.993 9.13227C12.8343 9.32622 12.7542 9.57266 12.7686 9.82282L12.9464 12.9178C12.9881 13.6449 12.2636 14.1713 11.585 13.9069L8.69642 12.7815C8.46294 12.6905 8.20381 12.6905 7.97033 12.7815L5.08177 13.9069C4.40318 14.1713 3.67861 13.6449 3.72037 12.9178L3.89813 9.82282C3.9125 9.57266 3.83242 9.32622 3.67376 9.13227L1.71076 6.73287C1.24961 6.1692 1.52637 5.31742 2.23077 5.13245L5.2292 4.34512C5.47156 4.28148 5.6812 4.12917 5.81662 3.91833L7.49198 1.30996Z" fill="#FFCE22"/>
<path d="M26.492 1.30996C26.8856 0.697195 27.7812 0.697195 28.1748 1.30996L29.8501 3.91833C29.9856 4.12917 30.1952 4.28148 30.4375 4.34512L33.436 5.13245C34.1404 5.31742 34.4171 6.1692 33.956 6.73287L31.993 9.13227C31.8343 9.32622 31.7542 9.57266 31.7686 9.82282L31.9464 12.9178C31.9881 13.6449 31.2636 14.1713 30.585 13.9069L27.6964 12.7815C27.4629 12.6905 27.2038 12.6905 26.9703 12.7815L24.0818 13.9069C23.4032 14.1713 22.6786 13.6449 22.7204 12.9178L22.8981 9.82282C22.9125 9.57266 22.8324 9.32622 22.6738 9.13227L20.7108 6.73287C20.2496 6.1692 20.5264 5.31742 21.2308 5.13245L24.2292 4.34512C24.4716 4.28148 24.6812 4.12917 24.8166 3.91833L26.492 1.30996Z" fill="#FFCE22"/>
<path d="M45.492 1.30996C45.8856 0.697195 46.7812 0.697195 47.1748 1.30996L48.8501 3.91833C48.9856 4.12917 49.1952 4.28148 49.4375 4.34512L52.436 5.13245C53.1404 5.31742 53.4171 6.1692 52.956 6.73287L50.993 9.13227C50.8343 9.32622 50.7542 9.57266 50.7686 9.82282L50.9464 12.9178C50.9881 13.6449 50.2636 14.1713 49.585 13.9069L46.6964 12.7815C46.4629 12.6905 46.2038 12.6905 45.9703 12.7815L43.0818 13.9069C42.4032 14.1713 41.6786 13.6449 41.7204 12.9178L41.8981 9.82282C41.9125 9.57266 41.8324 9.32622 41.6738 9.13227L39.7108 6.73287C39.2496 6.1692 39.5264 5.31742 40.2308 5.13245L43.2292 4.34512C43.4716 4.28148 43.6812 4.12917 43.8166 3.91833L45.492 1.30996Z" fill="#FFCE22"/>
<path d="M64.492 1.30996C64.8856 0.697195 65.7812 0.697195 66.1748 1.30996L67.8501 3.91833C67.9856 4.12917 68.1952 4.28148 68.4375 4.34512L71.436 5.13245C72.1404 5.31742 72.4171 6.1692 71.956 6.73287L69.993 9.13227C69.8343 9.32622 69.7542 9.57266 69.7686 9.82282L69.9464 12.9178C69.9881 13.6449 69.2636 14.1713 68.585 13.9069L65.6964 12.7815C65.4629 12.6905 65.2038 12.6905 64.9703 12.7815L62.0818 13.9069C61.4032 14.1713 60.6786 13.6449 60.7204 12.9178L60.8981 9.82282C60.9125 9.57266 60.8324 9.32622 60.6738 9.13227L58.7108 6.73287C58.2496 6.1692 58.5264 5.31742 59.2308 5.13245L62.2292 4.34512C62.4716 4.28148 62.6812 4.12917 62.8166 3.91833L64.492 1.30996Z" fill="#FFCE22"/>
<path d="M83.492 1.30996C83.8856 0.697195 84.7812 0.697195 85.1748 1.30996L86.8501 3.91833C86.9856 4.12917 87.1952 4.28148 87.4375 4.34512L90.436 5.13245C91.1404 5.31742 91.4171 6.1692 90.956 6.73287L88.993 9.13227C88.8343 9.32622 88.7542 9.57266 88.7686 9.82282L88.9464 12.9178C88.9881 13.6449 88.2636 14.1713 87.585 13.9069L84.6964 12.7815C84.4629 12.6905 84.2038 12.6905 83.9703 12.7815L81.0818 13.9069C80.4032 14.1713 79.6786 13.6449 79.7204 12.9178L79.8981 9.82282C79.9125 9.57266 79.8324 9.32622 79.6738 9.13227L77.7108 6.73287C77.2496 6.1692 77.5264 5.31742 78.2308 5.13245L81.2292 4.34512C81.4716 4.28148 81.6812 4.12917 81.8166 3.91833L83.492 1.30996Z" fill="#FFCE22"/>
</svg>
