<svg width="16" height="16" viewBox="0 0 16 16" fill="none" xmlns="http://www.w3.org/2000/svg">
<path d="M5.03344 14.4999C11.0697 14.4999 14.3722 9.49768 14.3722 5.16112C14.3722 5.02049 14.3691 4.87674 14.3628 4.73612C15.0052 4.27152 15.5597 3.69605 16 3.03674C15.4017 3.30294 14.7664 3.4768 14.1159 3.55237C14.8009 3.14182 15.3137 2.49686 15.5594 1.73706C14.915 2.11892 14.2104 2.38829 13.4756 2.53362C12.9806 2.00759 12.326 1.65929 11.6131 1.54258C10.9003 1.42587 10.1688 1.54724 9.53183 1.88794C8.89486 2.22864 8.38787 2.76968 8.08923 3.42742C7.7906 4.08516 7.71695 4.82295 7.87969 5.52674C6.575 5.46127 5.29862 5.12235 4.13332 4.53194C2.96802 3.94154 1.9398 3.11284 1.11531 2.09956C0.696266 2.82204 0.568038 3.67697 0.756687 4.49061C0.945337 5.30424 1.43671 6.01551 2.13094 6.47987C1.60975 6.46332 1.09998 6.323 0.64375 6.07049V6.11112C0.643283 6.86931 0.905399 7.60427 1.38554 8.19106C1.86568 8.77785 2.53422 9.18025 3.2775 9.32987C2.7947 9.46196 2.28799 9.48121 1.79656 9.38612C2.0063 10.0382 2.41438 10.6085 2.96385 11.0174C3.51331 11.4264 4.17675 11.6536 4.86156 11.6674C3.69895 12.5806 2.26278 13.076 0.784375 13.0736C0.522191 13.0732 0.260266 13.0571 0 13.0255C1.5019 13.989 3.24902 14.5008 5.03344 14.4999Z" fill="white"/>
</svg>
